<svg width="350" height="140" viewBox="0 0 350 140" fill="none" xmlns="http://www.w3.org/2000/svg">
<path d="M197.802 19.0437C197.622 19.3378 197.555 19.4736 197.465 19.5868C187.861 32.8465 178.325 46.1513 168.384 59.2528C167.686 60.2031 166.899 61.0855 166.134 62.0358C165.988 62.2847 165.753 62.4679 165.477 62.5479C165.201 62.6279 164.905 62.5984 164.65 62.4658C157.113 60.3041 149.249 59.5375 141.439 60.2031C126.605 61.4604 112.037 64.9222 98.2112 70.4759C79.1115 77.8232 60.7197 86.9119 43.2652 97.6289C41.376 98.7604 39.5092 99.8916 37.6424 101.114C37.35 101.272 37.1252 101.589 36.6753 101.43C50.9536 88.3953 66.0542 76.302 81.8826 65.2264C99.6388 52.7034 118.641 42.0716 138.583 33.5026C149.633 28.7281 161.081 24.9422 172.792 22.1889C180.604 20.3269 188.585 19.273 196.61 19.0437H197.802Z" fill="#14509D"/>
<path d="M188.693 80.6585C186.646 79.9343 184.622 79.1197 182.575 78.3958C177.996 76.9538 173.276 76.0132 168.496 75.5898C165.192 75.2806 161.872 75.1747 158.555 75.2731C153.974 75.3824 149.406 75.7981 144.88 76.5176C127.347 79.464 110.293 84.7925 94.1851 92.3567C84.7163 96.7239 75.6075 101.611 66.611 106.771C57.3714 112.022 47.2957 115.621 36.8326 117.405C31.2718 118.37 25.6237 118.726 19.9868 118.469C15.9703 118.341 11.9868 117.694 8.13393 116.546C7.44139 116.392 6.78955 116.091 6.22217 115.663L10.383 114.916C23.2679 112.483 35.7216 108.136 47.3359 102.019C55.7703 97.6969 63.8894 92.8321 72.0763 88.1029C85.9582 79.9873 100.914 73.8926 116.496 70.0009C122.283 68.5654 128.159 67.5222 134.084 66.8782C139.2 66.3246 144.351 66.1657 149.491 66.4031C159.985 66.7166 170.276 69.3916 179.607 74.2322C182.777 75.8944 185.724 77.9548 188.378 80.3642C188.491 80.4531 188.597 80.5516 188.693 80.6585Z" fill="#14509D"/>
<path d="M58.7842 77.6488C61.7529 73.8022 64.9242 70.1818 68.2078 66.6745C79.936 53.886 93.3089 42.7301 107.972 33.5028C112.771 30.472 117.812 27.8458 123.041 25.6509C123.635 25.3875 124.298 25.3241 124.931 25.47C130.778 26.6012 136.626 27.7327 142.519 28.9093C112.847 41.8825 84.7521 58.2357 58.7842 77.6488Z" fill="#14509D"/>
<path d="M182.936 85.9761L176.188 85.3876C171.524 84.9502 166.835 84.8293 162.154 85.0256C154.66 85.607 147.253 87.0182 140.068 89.2345C134.962 90.6826 130.127 92.9226 125.201 94.8686C117.37 98.1385 109.357 100.949 101.203 103.286C95.9551 104.721 90.5993 105.72 85.1893 106.273C83.6942 106.416 82.1921 106.469 80.6909 106.431C80.7702 106.265 80.8864 106.119 81.0308 106.005C81.175 105.891 81.3435 105.813 81.5231 105.775C91.3067 101.25 101.225 96.9956 111.369 93.3299C119.73 90.235 128.27 87.6508 136.941 85.5913C142.508 84.2651 148.148 83.2753 153.832 82.6271C158.31 82.1048 162.823 81.9383 167.327 82.1292C172.412 82.1727 177.437 83.2422 182.104 85.2746C182.438 85.4296 182.725 85.6719 182.936 85.9761Z" fill="#14509D"/>
<path d="M130.239 97.561C119.691 122.451 88.4504 144.219 52.0371 135.123L55.9057 135.688C60.0802 136.246 64.3002 136.375 68.5006 136.073C75.2444 135.684 81.8748 134.154 88.113 131.548C101.659 125.973 112.763 115.686 119.398 102.562C119.739 101.805 120.337 101.194 121.085 100.842C124.021 99.5811 127.024 98.4857 130.081 97.561H130.239Z" fill="#14509D"/>
<path d="M104.846 30.8773C88.477 41.6533 73.7361 54.7458 61.0783 69.7515L60.8984 69.6158C61.2132 69.0046 61.5057 68.3937 61.8207 67.8055C67.5318 56.6706 75.0152 46.5505 83.9744 37.8468C86.8718 35.062 90.0022 32.5336 93.3308 30.2891C93.8492 29.9077 94.4921 29.7378 95.1299 29.8139C98.3687 30.1985 101.585 30.5379 104.846 30.8773Z" fill="#14509D"/>
<path d="M117.846 21.6455C116.425 20.1177 114.924 18.6674 113.348 17.3011C105.505 10.3023 96.1361 5.25688 85.9977 2.57228C75.8593 -0.112323 65.2353 -0.360931 54.9837 1.84653C40.1818 4.68583 26.8099 12.5834 17.1311 24.2024C9.5618 33.0288 4.36106 43.6554 2.0228 55.0729C-0.315448 66.4905 0.286457 78.3199 3.77135 89.4376C3.88423 90.107 4.16267 90.7372 4.58103 91.2703C4.35612 90.5463 4.15369 89.8221 3.92878 89.0076C3.27085 86.0256 2.81994 83.0014 2.57932 79.9566C1.58614 68.5186 3.93104 57.0377 9.32667 46.9204C15.2402 35.9501 24.2895 27.0171 35.304 21.2767C46.3184 15.5364 58.7915 13.2529 71.1098 14.7216C83.7193 16.0395 95.6105 21.2658 105.139 29.6784C105.217 29.7619 105.311 29.8285 105.415 29.8741C105.52 29.9195 105.632 29.9431 105.746 29.9431C105.86 29.9431 105.973 29.9195 106.077 29.8741C106.182 29.8285 106.276 29.7619 106.354 29.6784C110.177 27.212 114.046 24.7682 117.892 22.3243C118.341 22.0755 118.094 21.8946 117.846 21.6455Z" fill="#14509D"/>
<path d="M221.065 70.8823C221.409 70.825 221.765 70.7819 222.134 70.7533C222.505 70.7244 222.876 70.7102 223.247 70.7102C223.618 70.7102 223.987 70.7244 224.358 70.7533C224.729 70.7819 225.086 70.825 225.427 70.8823V83.6182H238.514V70.8823C238.828 70.825 239.17 70.7819 239.541 70.7533C239.912 70.7244 240.283 70.7102 240.652 70.7102C241.023 70.7102 241.394 70.7244 241.766 70.7533C242.164 70.7819 242.535 70.825 242.877 70.8823V101.818C242.563 101.876 242.221 101.919 241.85 101.947C241.481 101.976 241.095 101.99 240.697 101.99C240.325 101.99 239.94 101.976 239.541 101.947C239.17 101.919 238.828 101.876 238.514 101.818V87.4905H225.427V101.818C225.086 101.876 224.729 101.919 224.358 101.947C224.017 101.976 223.646 101.99 223.247 101.99C222.876 101.99 222.49 101.976 222.092 101.947C221.721 101.919 221.379 101.876 221.065 101.818V70.8823ZM265.523 94.6761H253.849L251.753 101.818C251.382 101.876 251.011 101.919 250.642 101.947C250.271 101.976 249.9 101.99 249.529 101.99C249.13 101.99 248.732 101.976 248.331 101.947C247.96 101.919 247.619 101.876 247.304 101.818L257.313 70.8823C257.684 70.825 258.083 70.7819 258.511 70.7533C258.939 70.7244 259.379 70.7102 259.837 70.7102C260.235 70.7102 260.649 70.7244 261.077 70.7533C261.505 70.7819 261.918 70.825 262.316 70.8823L272.281 101.818C271.939 101.876 271.553 101.919 271.128 101.947C270.7 101.976 270.286 101.99 269.886 101.99C269.517 101.99 269.131 101.976 268.732 101.947C268.361 101.919 268.005 101.876 267.663 101.818L265.523 94.6761ZM255.004 90.8467H264.37L259.666 75.056L255.004 90.8467ZM274.044 101.431L289.526 74.7117H275.969C275.909 74.4535 275.867 74.1523 275.84 73.8081C275.81 73.464 275.796 73.1339 275.796 72.8185C275.796 72.5029 275.81 72.173 275.84 71.829C275.867 71.4847 275.909 71.1691 275.969 70.8823H295.94L296.239 71.2696L280.715 97.989H295.128C295.185 98.2472 295.227 98.5628 295.256 98.9357C295.284 99.2798 295.299 99.6096 295.299 99.9253C295.299 100.241 295.284 100.571 295.256 100.915C295.227 101.259 295.185 101.56 295.128 101.818H274.299L274.044 101.431ZM316.143 94.6761H304.468L302.372 101.818C302.001 101.876 301.63 101.919 301.261 101.947C300.89 101.976 300.519 101.99 300.148 101.99C299.75 101.99 299.351 101.976 298.95 101.947C298.579 101.919 298.238 101.876 297.924 101.818L307.932 70.8823C308.303 70.825 308.702 70.7819 309.13 70.7533C309.558 70.7244 309.999 70.7102 310.456 70.7102C310.855 70.7102 311.268 70.7244 311.696 70.7533C312.124 70.7819 312.537 70.825 312.936 70.8823L322.9 101.818C322.559 101.876 322.173 101.919 321.747 101.947C321.319 101.976 320.906 101.99 320.505 101.99C320.136 101.99 319.75 101.976 319.352 101.947C318.981 101.919 318.624 101.876 318.283 101.818L316.143 94.6761ZM305.624 90.8467H314.989L310.285 75.056L305.624 90.8467ZM327.484 70.8392C328.112 70.7819 328.681 70.7244 329.196 70.6672C329.708 70.6097 330.208 70.5668 330.693 70.538C331.205 70.4807 331.732 70.4377 332.274 70.409C332.816 70.3804 333.415 70.366 334.071 70.366C335.525 70.366 336.965 70.5094 338.391 70.7962C339.816 71.0832 341.085 71.585 342.196 72.3022C343.31 73.0194 344.208 73.9945 344.891 75.228C345.604 76.4326 345.96 77.9673 345.96 79.8319C345.96 80.9506 345.775 81.9688 345.403 82.8866C345.034 83.8047 344.564 84.6222 343.993 85.3392C343.424 86.0564 342.768 86.6874 342.026 87.2324C341.313 87.7487 340.615 88.1791 339.93 88.5231L339.418 88.7813L348.355 101.818C347.586 101.905 346.715 101.947 345.747 101.947C344.978 101.947 344.208 101.905 343.436 101.818L333.6 87.4905V87.3185L333.942 87.2324C334.712 87.0317 335.525 86.7591 336.381 86.4149C337.235 86.0708 338.02 85.6262 338.732 85.081C339.475 84.5075 340.086 83.8333 340.571 83.0589C341.056 82.2556 341.298 81.2947 341.298 80.1761C341.298 78.1107 340.685 76.5762 339.46 75.5723C338.262 74.5683 336.637 74.0662 334.585 74.0662C334.1 74.0662 333.643 74.0806 333.217 74.1093C332.816 74.1379 332.361 74.181 331.846 74.2385V101.818C331.534 101.847 331.178 101.876 330.777 101.905C330.408 101.933 330.052 101.947 329.708 101.947C329.367 101.947 328.996 101.933 328.597 101.905C328.199 101.905 327.828 101.876 327.484 101.818V70.8392Z" fill="#14509D"/>
<path d="M221.228 112.29C221.422 112.255 221.63 112.229 221.858 112.211C222.103 112.194 222.322 112.185 222.514 112.185C222.706 112.185 222.916 112.194 223.144 112.211C223.389 112.229 223.608 112.255 223.8 112.29V127.546C223.8 128.039 223.844 128.426 223.931 128.708C224.019 128.989 224.131 129.209 224.272 129.368C224.428 129.508 224.603 129.605 224.797 129.658C225.006 129.693 225.225 129.711 225.453 129.711C225.609 129.711 225.784 129.702 225.978 129.684C226.187 129.667 226.362 129.64 226.501 129.605C226.659 130.221 226.737 130.89 226.737 131.611C226.492 131.699 226.195 131.752 225.845 131.77C225.495 131.805 225.172 131.822 224.875 131.822C224.367 131.822 223.895 131.761 223.458 131.638C223.022 131.514 222.636 131.312 222.305 131.031C221.972 130.749 221.71 130.371 221.516 129.895C221.325 129.42 221.228 128.831 221.228 128.127V112.29ZM234.553 131.954C233.503 131.954 232.584 131.778 231.797 131.426C231.011 131.057 230.355 130.555 229.83 129.922C229.305 129.288 228.911 128.541 228.649 127.678C228.405 126.816 228.282 125.884 228.282 124.88C228.282 123.878 228.405 122.945 228.649 122.083C228.911 121.221 229.305 120.473 229.83 119.839C230.355 119.206 231.011 118.704 231.797 118.335C232.584 117.965 233.503 117.78 234.553 117.78C235.601 117.78 236.52 117.965 237.306 118.335C238.093 118.704 238.751 119.206 239.274 119.839C239.799 120.473 240.184 121.221 240.429 122.083C240.69 122.945 240.823 123.878 240.823 124.88C240.823 125.884 240.69 126.816 240.429 127.678C240.184 128.541 239.799 129.288 239.274 129.922C238.751 130.555 238.093 131.057 237.306 131.426C236.52 131.778 235.601 131.954 234.553 131.954ZM234.553 129.869C235.759 129.869 236.651 129.429 237.228 128.549C237.806 127.669 238.093 126.447 238.093 124.88C238.093 123.314 237.806 122.1 237.228 121.238C236.651 120.358 235.759 119.918 234.553 119.918C233.345 119.918 232.453 120.358 231.875 121.238C231.316 122.1 231.036 123.314 231.036 124.88C231.036 126.447 231.316 127.669 231.875 128.549C232.453 129.429 233.345 129.869 234.553 129.869ZM251.323 129.895C252.879 129.931 254.007 130.265 254.707 130.899C255.407 131.532 255.757 132.403 255.757 133.512C255.757 134.233 255.574 134.875 255.207 135.438C254.838 136.019 254.332 136.512 253.685 136.916C253.037 137.339 252.268 137.656 251.376 137.867C250.501 138.095 249.548 138.21 248.517 138.21C246.714 138.21 245.342 137.928 244.397 137.365C243.453 136.802 242.98 135.913 242.98 134.699C242.98 133.978 243.172 133.327 243.558 132.746C243.942 132.183 244.441 131.734 245.053 131.4C244.703 131.171 244.406 130.89 244.161 130.555C243.933 130.203 243.819 129.772 243.819 129.262C243.819 128.611 243.961 128.048 244.239 127.573C244.536 127.098 244.931 126.675 245.42 126.306C244.844 125.901 244.38 125.382 244.03 124.749C243.68 124.098 243.505 123.367 243.505 122.558C243.505 121.889 243.628 121.264 243.872 120.684C244.117 120.103 244.467 119.602 244.922 119.179C245.394 118.739 245.972 118.396 246.653 118.15C247.336 117.904 248.114 117.78 248.989 117.78C249.776 117.78 250.484 117.895 251.115 118.124C251.76 118.352 252.312 118.643 252.765 118.995C253.115 118.713 253.588 118.484 254.182 118.308C254.777 118.115 255.435 118.018 256.152 118.018C256.221 118.352 256.255 118.722 256.255 119.126C256.255 119.32 256.246 119.523 256.23 119.734C256.213 119.945 256.185 120.156 256.152 120.367H253.79C253.982 120.666 254.132 120.992 254.235 121.344C254.34 121.696 254.393 122.1 254.393 122.558C254.393 123.279 254.262 123.93 253.999 124.511C253.737 125.092 253.362 125.593 252.871 126.016C252.399 126.42 251.831 126.737 251.165 126.966C250.501 127.177 249.776 127.282 248.989 127.282C248.272 127.282 247.625 127.203 247.047 127.045C246.803 127.186 246.558 127.406 246.312 127.705C246.086 127.986 245.972 128.294 245.972 128.628C245.972 128.945 246.086 129.227 246.312 129.473C246.539 129.702 247.047 129.825 247.834 129.843L251.323 129.895ZM247.781 131.981C246.995 131.963 246.4 132.174 245.997 132.614C245.614 133.054 245.42 133.582 245.42 134.198C245.42 134.585 245.5 134.902 245.656 135.148C245.814 135.394 246.033 135.588 246.312 135.729C246.609 135.887 246.95 135.993 247.336 136.045C247.739 136.116 248.175 136.151 248.648 136.151C250.048 136.151 251.14 135.913 251.926 135.438C252.715 134.981 253.107 134.4 253.107 133.696C253.107 133.168 252.94 132.764 252.609 132.482C252.276 132.201 251.665 132.051 250.773 132.033L247.781 131.981ZM248.989 125.382C249.934 125.382 250.632 125.118 251.087 124.59C251.543 124.062 251.77 123.385 251.77 122.558C251.77 121.713 251.543 121.027 251.087 120.499C250.632 119.954 249.934 119.681 248.989 119.681C248.045 119.681 247.345 119.954 246.889 120.499C246.453 121.027 246.234 121.713 246.234 122.558C246.234 123.385 246.453 124.062 246.889 124.59C247.345 125.118 248.045 125.382 248.989 125.382ZM259.396 120.156H257.691C257.657 120.015 257.63 119.857 257.613 119.681C257.596 119.487 257.587 119.303 257.587 119.126C257.587 118.951 257.596 118.775 257.613 118.599C257.63 118.405 257.657 118.238 257.691 118.097H261.941V131.638C261.75 131.673 261.53 131.699 261.286 131.717C261.058 131.734 260.849 131.743 260.657 131.743C260.482 131.743 260.272 131.734 260.027 131.717C259.799 131.699 259.59 131.673 259.396 131.638V120.156ZM258.821 115.115C258.785 114.903 258.758 114.675 258.741 114.428C258.741 114.182 258.741 113.962 258.741 113.769C258.741 113.575 258.741 113.355 258.741 113.109C258.758 112.862 258.785 112.642 258.821 112.449C259.046 112.413 259.293 112.387 259.555 112.37C259.816 112.352 260.044 112.343 260.236 112.343C260.43 112.343 260.657 112.352 260.919 112.37C261.18 112.387 261.416 112.413 261.627 112.449C261.663 112.642 261.68 112.862 261.68 113.109C261.697 113.355 261.705 113.575 261.705 113.769C261.705 113.962 261.697 114.182 261.68 114.428C261.68 114.675 261.663 114.903 261.627 115.115C261.416 115.15 261.18 115.176 260.919 115.194C260.674 115.211 260.455 115.22 260.263 115.22C260.052 115.22 259.816 115.211 259.555 115.194C259.293 115.176 259.046 115.15 258.821 115.115ZM265.933 129.183C266.405 129.376 266.919 129.535 267.48 129.658C268.058 129.764 268.625 129.816 269.186 129.816C269.587 129.816 269.972 129.772 270.339 129.684C270.706 129.596 271.022 129.464 271.284 129.288C271.564 129.113 271.781 128.901 271.94 128.655C272.115 128.391 272.203 128.101 272.203 127.784C272.203 127.432 272.131 127.142 271.992 126.913C271.87 126.684 271.695 126.491 271.467 126.332C271.259 126.174 271.003 126.042 270.706 125.936C270.428 125.813 270.12 125.699 269.789 125.593L268.87 125.25C267.75 124.828 266.938 124.353 266.43 123.825C265.924 123.297 265.669 122.584 265.669 121.687C265.669 120.49 266.089 119.54 266.93 118.836C267.786 118.132 269.036 117.78 270.681 117.78C271.362 117.78 272.028 117.851 272.675 117.992C273.34 118.115 273.917 118.264 274.406 118.44C274.371 118.792 274.301 119.144 274.196 119.496C274.109 119.848 273.995 120.174 273.854 120.473C273.47 120.332 273.006 120.2 272.465 120.077C271.94 119.936 271.372 119.866 270.759 119.866C270.112 119.866 269.536 119.98 269.028 120.209C268.539 120.437 268.294 120.842 268.294 121.423C268.294 121.722 268.355 121.977 268.478 122.188C268.6 122.4 268.766 122.584 268.975 122.743C269.186 122.883 269.422 123.007 269.684 123.112C269.964 123.218 270.261 123.323 270.575 123.429L271.731 123.825C272.15 123.966 272.543 124.133 272.912 124.326C273.295 124.52 273.62 124.766 273.881 125.065C274.162 125.347 274.379 125.699 274.537 126.121C274.712 126.526 274.799 127.018 274.799 127.599C274.799 128.25 274.668 128.848 274.406 129.394C274.143 129.922 273.768 130.379 273.278 130.766C272.806 131.136 272.228 131.426 271.547 131.638C270.864 131.849 270.112 131.954 269.289 131.954C268.45 131.954 267.716 131.893 267.086 131.77C266.458 131.664 265.872 131.514 265.328 131.321C265.363 130.969 265.433 130.617 265.538 130.265C265.661 129.895 265.791 129.535 265.933 129.183ZM278.606 120.182H276.559L276.454 119.813L280.968 114.745H281.177V118.097H284.588C284.658 118.396 284.691 118.731 284.691 119.1C284.691 119.294 284.683 119.478 284.666 119.654C284.649 119.83 284.622 120.006 284.588 120.182H281.177V126.359C281.177 127.098 281.204 127.687 281.255 128.127C281.326 128.567 281.43 128.91 281.571 129.156C281.727 129.385 281.929 129.544 282.174 129.632C282.435 129.702 282.76 129.737 283.144 129.737C283.441 129.737 283.721 129.72 283.985 129.684C284.246 129.632 284.483 129.579 284.691 129.526C284.816 129.878 284.885 130.239 284.902 130.608C284.938 130.978 284.955 131.303 284.955 131.585C284.605 131.673 284.238 131.734 283.852 131.77C283.468 131.822 283.057 131.849 282.619 131.849C281.36 131.849 280.373 131.541 279.654 130.925C278.956 130.309 278.606 129.288 278.606 127.863V120.182ZM288.297 120.156H286.591C286.557 120.015 286.53 119.857 286.513 119.681C286.496 119.487 286.488 119.303 286.488 119.126C286.488 118.951 286.496 118.775 286.513 118.599C286.53 118.405 286.557 118.238 286.591 118.097H290.842V131.638C290.65 131.673 290.431 131.699 290.186 131.717C289.958 131.734 289.749 131.743 289.556 131.743C289.381 131.743 289.172 131.734 288.927 131.717C288.699 131.699 288.489 131.673 288.297 131.638V120.156ZM287.719 115.115C287.685 114.903 287.658 114.675 287.641 114.428C287.641 114.182 287.641 113.962 287.641 113.769C287.641 113.575 287.641 113.355 287.641 113.109C287.658 112.862 287.685 112.642 287.719 112.449C287.947 112.413 288.191 112.387 288.455 112.37C288.716 112.352 288.944 112.343 289.136 112.343C289.33 112.343 289.556 112.352 289.819 112.37C290.081 112.387 290.317 112.413 290.528 112.449C290.561 112.642 290.58 112.862 290.58 113.109C290.597 113.355 290.606 113.575 290.606 113.769C290.606 113.962 290.597 114.182 290.58 114.428C290.58 114.675 290.561 114.903 290.528 115.115C290.317 115.15 290.081 115.176 289.819 115.194C289.575 115.211 289.355 115.22 289.163 115.22C288.952 115.22 288.716 115.211 288.455 115.194C288.191 115.176 287.947 115.15 287.719 115.115ZM294.964 112.29C295.156 112.255 295.366 112.229 295.592 112.211C295.839 112.194 296.056 112.185 296.248 112.185C296.442 112.185 296.659 112.194 296.906 112.211C297.15 112.229 297.367 112.255 297.561 112.29V131.638C297.367 131.673 297.15 131.699 296.906 131.717C296.659 131.734 296.442 131.743 296.248 131.743C296.056 131.743 295.839 131.734 295.592 131.717C295.366 131.699 295.156 131.673 294.964 131.638V112.29ZM298.27 124.617L302.546 118.097C302.773 118.062 302.999 118.036 303.227 118.018C303.454 118 303.69 117.992 303.935 117.992C304.199 117.992 304.443 118 304.671 118.018C304.915 118.036 305.16 118.062 305.405 118.097L301.129 124.432L306.14 131.638C305.894 131.673 305.658 131.699 305.432 131.717C305.204 131.734 304.968 131.743 304.724 131.743C304.477 131.743 304.232 131.734 303.988 131.717C303.743 131.699 303.499 131.673 303.254 131.638L298.27 124.617Z" fill="#14509D"/>
</svg>
