<svg width="20" height="21" viewBox="0 0 20 21" fill="none" xmlns="http://www.w3.org/2000/svg">
<path d="M14.4999 9.66658C14.4999 12.6121 12.1121 14.9999 9.16658 14.9999V15.9999C12.6644 15.9999 15.4999 13.1644 15.4999 9.66658H14.4999ZM9.16658 14.9999C6.22107 14.9999 3.83325 12.6121 3.83325 9.66658H2.83325C2.83325 13.1644 5.66878 15.9999 9.16658 15.9999V14.9999ZM3.83325 9.66658C3.83325 6.72107 6.22107 4.33325 9.16658 4.33325V3.33325C5.66878 3.33325 2.83325 6.16878 2.83325 9.66658H3.83325ZM9.16658 4.33325C12.1121 4.33325 14.4999 6.72107 14.4999 9.66658H15.4999C15.4999 6.16878 12.6644 3.33325 9.16658 3.33325V4.33325Z" fill="#666C76"/>
<path d="M16.6667 17.1667L15 15.5" stroke="#666C76" stroke-width="2" stroke-linecap="round"/>
</svg>
