<svg width="17" height="17" viewBox="0 0 17 17" fill="none" xmlns="http://www.w3.org/2000/svg">
<path d="M11.9917 0.166748H5.00841C1.97508 0.166748 0.166748 1.97508 0.166748 5.00841V11.9834C0.166748 15.0251 1.97508 16.8334 5.00841 16.8334H11.9834C15.0167 16.8334 16.8251 15.0251 16.8251 11.9917V5.00841C16.8334 1.97508 15.0251 0.166748 11.9917 0.166748ZM12.4834 6.58341L7.75841 11.3084C7.64175 11.4251 7.48341 11.4917 7.31675 11.4917C7.15008 11.4917 6.99175 11.4251 6.87508 11.3084L4.51675 8.95008C4.27508 8.70841 4.27508 8.30841 4.51675 8.06675C4.75841 7.82508 5.15841 7.82508 5.40008 8.06675L7.31675 9.98341L11.6001 5.70008C11.8417 5.45842 12.2417 5.45842 12.4834 5.70008C12.7251 5.94175 12.7251 6.33341 12.4834 6.58341Z" fill="#14509D"/>
</svg>
