<svg width="20" height="20" viewBox="0 0 20 20" fill="none" xmlns="http://www.w3.org/2000/svg">
<path d="M15.4163 10.5417V13.6251C15.4163 16.2251 12.9913 18.3334 9.99967 18.3334C7.00801 18.3334 4.58301 16.2251 4.58301 13.6251V10.5417C4.58301 13.1417 7.00801 15.0001 9.99967 15.0001C12.9913 15.0001 15.4163 13.1417 15.4163 10.5417Z" stroke="white" stroke-width="1.5" stroke-linecap="round" stroke-linejoin="round"/>
<path d="M15.4163 6.37508C15.4163 7.13342 15.208 7.83341 14.8413 8.43341C13.9497 9.90008 12.1163 10.8334 9.99967 10.8334C7.88301 10.8334 6.04968 9.90008 5.15801 8.43341C4.79134 7.83341 4.58301 7.13342 4.58301 6.37508C4.58301 5.07508 5.19134 3.90008 6.16634 3.05008C7.14967 2.19175 8.49967 1.66675 9.99967 1.66675C11.4997 1.66675 12.8497 2.19175 13.833 3.04175C14.808 3.90008 15.4163 5.07508 15.4163 6.37508Z" stroke="white" stroke-width="1.5" stroke-linecap="round" stroke-linejoin="round"/>
<path d="M15.4163 6.37508V10.5417C15.4163 13.1417 12.9913 15.0001 9.99967 15.0001C7.00801 15.0001 4.58301 13.1417 4.58301 10.5417V6.37508C4.58301 3.77508 7.00801 1.66675 9.99967 1.66675C11.4997 1.66675 12.8497 2.19175 13.833 3.04175C14.808 3.90008 15.4163 5.07508 15.4163 6.37508Z" stroke="white" stroke-width="1.5" stroke-linecap="round" stroke-linejoin="round"/>
</svg>
