<svg width="20" height="20" viewBox="0 0 20 20" fill="none" xmlns="http://www.w3.org/2000/svg">
<path d="M5.58367 15.0001H3.45868C2.26701 15.0001 1.66699 14.4001 1.66699 13.2084V3.45844C1.66699 2.26677 2.26701 1.66675 3.45868 1.66675H7.042C8.23367 1.66675 8.83364 2.26677 8.83364 3.45844V5.00008" stroke="white" stroke-width="1.5" stroke-miterlimit="10" stroke-linecap="round" stroke-linejoin="round"/>
<path d="M14.4747 7.01665V16.3167C14.4747 17.6583 13.808 18.3333 12.4663 18.3333H7.59966C6.25799 18.3333 5.58301 17.6583 5.58301 16.3167V7.01665C5.58301 5.67499 6.25799 5 7.59966 5H12.4663C13.808 5 14.4747 5.67499 14.4747 7.01665Z" stroke="white" stroke-width="1.5" stroke-miterlimit="10" stroke-linecap="round" stroke-linejoin="round"/>
<path d="M11.167 5.00008V3.45844C11.167 2.26677 11.767 1.66675 12.9586 1.66675H16.542C17.7336 1.66675 18.3336 2.26677 18.3336 3.45844V13.2084C18.3336 14.4001 17.7336 15.0001 16.542 15.0001H14.4753" stroke="white" stroke-width="1.5" stroke-miterlimit="10" stroke-linecap="round" stroke-linejoin="round"/>
<path d="M8.33301 9.16675H11.6663" stroke="white" stroke-width="1.5" stroke-miterlimit="10" stroke-linecap="round" stroke-linejoin="round"/>
<path d="M8.33301 11.6667H11.6663" stroke="white" stroke-width="1.5" stroke-miterlimit="10" stroke-linecap="round" stroke-linejoin="round"/>
<path d="M10 18.3333V15.8333" stroke="white" stroke-width="1.5" stroke-miterlimit="10" stroke-linecap="round" stroke-linejoin="round"/>
</svg>
