<svg width="20" height="20" viewBox="0 0 20 20" fill="none" xmlns="http://www.w3.org/2000/svg">
<path d="M4.55827 7.50008C6.1691 7.50008 7.47493 6.19425 7.47493 4.58341C7.47493 2.97258 6.1691 1.66675 4.55827 1.66675C2.94744 1.66675 1.6416 2.97258 1.6416 4.58341C1.6416 6.19425 2.94744 7.50008 4.55827 7.50008Z" stroke="white" stroke-width="1.5"/>
<path d="M14.1413 12.5H16.6413C17.5579 12.5 18.3079 13.25 18.3079 14.1667V16.6667C18.3079 17.5833 17.5579 18.3333 16.6413 18.3333H14.1413C13.2246 18.3333 12.4746 17.5833 12.4746 16.6667V14.1667C12.4746 13.25 13.2246 12.5 14.1413 12.5Z" stroke="white" stroke-width="1.5"/>
<path d="M10.0004 4.16675H12.2337C13.7754 4.16675 14.4921 6.07508 13.3337 7.09175L6.6754 12.9167C5.51707 13.9251 6.23373 15.8334 7.76707 15.8334H10.0004" stroke="white" stroke-width="1.5" stroke-linecap="round" stroke-linejoin="round"/>
<path d="M4.57209 4.58341H4.58172" stroke="white" stroke-width="2" stroke-linecap="round" stroke-linejoin="round"/>
<path d="M15.4051 15.4167H15.4147" stroke="white" stroke-width="2" stroke-linecap="round" stroke-linejoin="round"/>
</svg>
