<svg width="120" height="48" viewBox="0 0 120 48" fill="none" xmlns="http://www.w3.org/2000/svg">
<g clip-path="url(#clip0_172_1394)">
<path d="M67.8179 6.5293C67.7562 6.63015 67.7331 6.67669 67.7022 6.71549C64.4095 11.2617 61.14 15.8233 57.7316 20.3153C57.4925 20.6411 57.2226 20.9436 56.9604 21.2695C56.9104 21.3548 56.8297 21.4176 56.7351 21.445C56.6405 21.4724 56.539 21.4623 56.4515 21.4169C53.8674 20.6757 51.171 20.4129 48.4935 20.6411C43.4074 21.0721 38.4128 22.2591 33.6725 24.1632C27.124 26.6823 20.8182 29.7984 14.8339 33.4728C14.1862 33.8607 13.5461 34.2486 12.9061 34.6676C12.8058 34.7218 12.7287 34.8305 12.5745 34.7761C17.4699 30.307 22.6472 26.1607 28.0741 22.3633C34.162 18.0697 40.677 14.4246 47.5142 11.4866C51.3029 9.84967 55.2277 8.55164 59.243 7.60764C61.9214 6.96925 64.6577 6.60792 67.4092 6.5293H67.8179Z" fill="white"/>
<path d="M64.6947 27.6544C63.993 27.4061 63.299 27.1268 62.5972 26.8786C61.0272 26.3842 59.4088 26.0617 57.77 25.9165C56.6371 25.8105 55.4989 25.7742 54.3616 25.808C52.7911 25.8454 51.2249 25.988 49.6732 26.2347C43.6618 27.2448 37.8146 29.0717 32.292 31.6652C29.0456 33.1625 25.9226 34.8382 22.838 36.6071C19.6702 38.4077 16.2156 39.6414 12.6283 40.2533C10.7217 40.5839 8.78525 40.7061 6.85259 40.6179C5.47552 40.574 4.10974 40.3523 2.78876 39.9585C2.55132 39.9059 2.32783 39.8027 2.1333 39.656L3.55988 39.4C7.97757 38.5656 12.2474 37.0753 16.2294 34.9779C19.1212 33.4961 21.9049 31.8282 24.7119 30.2067C29.4714 27.4243 34.599 25.3347 39.9416 24.0003C41.9256 23.5082 43.9402 23.1505 45.9718 22.9297C47.7258 22.7399 49.4917 22.6854 51.254 22.7668C54.8519 22.8743 58.3802 23.7915 61.5794 25.4511C62.6663 26.021 63.6768 26.7274 64.5868 27.5535C64.6255 27.584 64.6617 27.6177 64.6947 27.6544Z" fill="white"/>
<path d="M20.1545 26.6225C21.1724 25.3036 22.2597 24.0623 23.3855 22.8599C27.4066 18.4752 31.9916 14.6503 37.019 11.4867C38.6645 10.4476 40.3925 9.54714 42.1856 8.79463C42.3892 8.7043 42.6164 8.68256 42.8333 8.73259C44.8383 9.12045 46.8432 9.50838 48.8635 9.91179C38.6904 14.3597 29.0578 19.9666 20.1545 26.6225Z" fill="white"/>
<path d="M62.7209 29.4775L60.4075 29.2757C58.8082 29.1258 57.2006 29.0843 55.5957 29.1516C53.0264 29.3509 50.4869 29.8348 48.0232 30.5946C46.2728 31.0911 44.6149 31.8591 42.9261 32.5263C40.2412 33.6474 37.494 34.611 34.6982 35.4123C32.899 35.9042 31.0627 36.2467 29.2078 36.4364C28.6952 36.4855 28.1802 36.5036 27.6655 36.4907C27.6927 36.4336 27.7325 36.3837 27.7821 36.3446C27.8315 36.3056 27.8893 36.2786 27.9509 36.2657C31.3052 34.7141 34.7059 33.2556 38.1837 31.9988C41.0505 30.9377 43.9784 30.0516 46.9514 29.3455C48.8599 28.8908 50.7937 28.5515 52.7426 28.3292C54.2779 28.1502 55.825 28.0931 57.3693 28.1586C59.1128 28.1735 60.8356 28.5402 62.4356 29.237C62.5503 29.2901 62.6488 29.3732 62.7209 29.4775Z" fill="white"/>
<path d="M44.6534 33.4495C41.0368 41.9833 30.3259 49.4464 17.8413 46.3277L19.1677 46.5217C20.5989 46.713 22.0458 46.7572 23.4859 46.6535C25.7981 46.5202 28.0714 45.9956 30.2102 45.102C34.8546 43.1907 38.6615 39.6636 40.9365 35.164C41.0533 34.9044 41.2584 34.6952 41.5149 34.5743C42.5215 34.142 43.5512 33.7665 44.5994 33.4495H44.6534Z" fill="white"/>
<path d="M35.9472 10.5865C30.3349 14.2811 25.2809 18.77 20.9411 23.9148L20.8794 23.8683C20.9873 23.6587 21.0876 23.4493 21.1956 23.2476C23.1537 19.4299 25.7194 15.9602 28.7912 12.976C29.7845 12.0213 30.8578 11.1544 31.9991 10.3848C32.1768 10.2541 32.3972 10.1958 32.6159 10.2219C33.7263 10.3538 34.829 10.4701 35.9472 10.5865Z" fill="white"/>
<path d="M40.4045 7.42135C39.9173 6.89752 39.4024 6.40029 38.8623 5.93182C36.1732 3.53223 32.9609 1.80238 29.4849 0.881945C26.0089 -0.0384897 22.3664 -0.123727 18.8515 0.633116C13.7766 1.60659 9.19198 4.31434 5.87351 8.298C3.27833 11.3242 1.49521 14.9676 0.693525 18.8821C-0.10816 22.7968 0.0982069 26.8526 1.29303 30.6643C1.33173 30.8939 1.4272 31.1099 1.57063 31.2927C1.49352 31.0445 1.42412 30.7962 1.34701 30.5169C1.12143 29.4945 0.966829 28.4576 0.884333 27.4137C0.543813 23.4921 1.34778 19.5558 3.19771 16.087C5.22522 12.3258 8.32783 9.26302 12.1042 7.29488C15.8806 5.3268 20.1571 4.54388 24.3805 5.04741C28.7038 5.49927 32.7807 7.29117 36.0477 10.1755C36.0744 10.2041 36.1066 10.2269 36.1424 10.2426C36.1782 10.2581 36.2168 10.2662 36.2559 10.2662C36.2949 10.2662 36.3335 10.2581 36.3693 10.2426C36.4052 10.2269 36.4374 10.2041 36.4641 10.1755C37.775 9.32986 39.1013 8.49197 40.4199 7.65408C40.5741 7.56877 40.4893 7.50673 40.4045 7.42135Z" fill="white"/>
<path d="M75.7937 24.3025C75.9115 24.2829 76.0337 24.2681 76.1602 24.2583C76.2874 24.2484 76.4147 24.2435 76.5419 24.2435C76.6691 24.2435 76.7956 24.2484 76.9229 24.2583C77.0501 24.2681 77.1723 24.2829 77.2894 24.3025V28.6691H81.7763V24.3025C81.8841 24.2829 82.0012 24.2681 82.1284 24.2583C82.2556 24.2484 82.3829 24.2435 82.5094 24.2435C82.6366 24.2435 82.7638 24.2484 82.891 24.2583C83.0277 24.2681 83.1549 24.2829 83.272 24.3025V34.9092C83.1643 34.9288 83.0472 34.9436 82.92 34.9534C82.7935 34.9633 82.6612 34.9682 82.5245 34.9682C82.3973 34.9682 82.265 34.9633 82.1284 34.9534C82.0012 34.9436 81.8841 34.9288 81.7763 34.9092V29.9968H77.2894V34.9092C77.1723 34.9288 77.0501 34.9436 76.9229 34.9534C76.8058 34.9633 76.6785 34.9682 76.5419 34.9682C76.4147 34.9682 76.2824 34.9633 76.1457 34.9534C76.0185 34.9436 75.9014 34.9288 75.7937 34.9092V24.3025ZM91.0366 32.4604H87.0339L86.3154 34.9092C86.1882 34.9288 86.0609 34.9436 85.9344 34.9534C85.8072 34.9633 85.68 34.9682 85.5527 34.9682C85.4161 34.9682 85.2795 34.9633 85.1421 34.9534C85.0149 34.9436 84.8978 34.9288 84.7901 34.9092L88.2216 24.3025C88.3489 24.2829 88.4855 24.2681 88.6322 24.2583C88.779 24.2484 88.9301 24.2435 89.0869 24.2435C89.2236 24.2435 89.3653 24.2484 89.512 24.2583C89.6588 24.2681 89.8004 24.2829 89.9371 24.3025L93.3535 34.9092C93.2363 34.9288 93.104 34.9436 92.958 34.9534C92.8113 34.9633 92.6696 34.9682 92.5323 34.9682C92.4057 34.9682 92.2735 34.9633 92.1368 34.9534C92.0096 34.9436 91.8874 34.9288 91.7703 34.9092L91.0366 32.4604ZM87.4301 31.1475H90.6412L89.0284 25.7335L87.4301 31.1475ZM93.9578 34.7764L99.266 25.6155H94.6178C94.5975 25.5269 94.5831 25.4237 94.5737 25.3056C94.5636 25.1877 94.5585 25.0745 94.5585 24.9664C94.5585 24.8581 94.5636 24.7451 94.5737 24.6271C94.5831 24.5091 94.5975 24.4008 94.6178 24.3025H101.465L101.568 24.4353L96.245 33.5963H101.187C101.206 33.6848 101.221 33.793 101.231 33.9208C101.24 34.0388 101.245 34.1519 101.245 34.2601C101.245 34.3683 101.24 34.4814 101.231 34.5994C101.221 34.7174 101.206 34.8207 101.187 34.9092H94.0453L93.9578 34.7764ZM108.392 32.4604H104.389L103.671 34.9092C103.543 34.9288 103.416 34.9436 103.29 34.9534C103.162 34.9633 103.035 34.9682 102.908 34.9682C102.771 34.9682 102.635 34.9633 102.497 34.9534C102.37 34.9436 102.253 34.9288 102.145 34.9092L105.577 24.3025C105.704 24.2829 105.841 24.2681 105.987 24.2583C106.134 24.2484 106.285 24.2435 106.442 24.2435C106.579 24.2435 106.72 24.2484 106.867 24.2583C107.014 24.2681 107.156 24.2829 107.292 24.3025L110.709 34.9092C110.592 34.9288 110.459 34.9436 110.313 34.9534C110.166 34.9633 110.025 34.9682 109.887 34.9682C109.761 34.9682 109.629 34.9633 109.492 34.9534C109.365 34.9436 109.243 34.9288 109.125 34.9092L108.392 32.4604ZM104.785 31.1475H107.996L106.384 25.7335L104.785 31.1475ZM112.28 24.2877C112.496 24.2681 112.691 24.2484 112.867 24.2288C113.043 24.2091 113.214 24.1944 113.38 24.1845C113.556 24.1648 113.737 24.1501 113.923 24.1403C114.108 24.1304 114.314 24.1255 114.539 24.1255C115.037 24.1255 115.531 24.1747 116.02 24.273C116.508 24.3714 116.944 24.5435 117.325 24.7893C117.706 25.0352 118.014 25.3696 118.248 25.7925C118.493 26.2055 118.615 26.7317 118.615 27.3709C118.615 27.7545 118.551 28.1036 118.424 28.4183C118.298 28.7331 118.136 29.0133 117.94 29.2592C117.745 29.5051 117.52 29.7214 117.266 29.9083C117.022 30.0853 116.782 30.2328 116.547 30.3508L116.372 30.4393L119.436 34.9092C119.172 34.9387 118.874 34.9534 118.542 34.9534C118.278 34.9534 118.014 34.9387 117.75 34.9092L114.377 29.9968V29.9378L114.494 29.9083C114.758 29.8395 115.037 29.746 115.331 29.628C115.624 29.51 115.892 29.3576 116.137 29.1707C116.391 28.974 116.601 28.7429 116.767 28.4773C116.933 28.2019 117.017 27.8725 117.017 27.489C117.017 26.7808 116.806 26.2547 116.386 25.9105C115.976 25.5663 115.418 25.3941 114.715 25.3941C114.549 25.3941 114.392 25.3991 114.246 25.4089C114.108 25.4187 113.952 25.4335 113.776 25.4532V34.9092C113.669 34.919 113.547 34.9288 113.409 34.9387C113.283 34.9485 113.161 34.9534 113.043 34.9534C112.926 34.9534 112.799 34.9485 112.662 34.9387C112.525 34.9387 112.398 34.9288 112.28 34.9092V24.2877Z" fill="white"/>
<path d="M75.8494 38.4996C75.9159 38.4875 75.9874 38.4784 76.0655 38.4724C76.1494 38.4664 76.2245 38.4634 76.2903 38.4634C76.3561 38.4634 76.4284 38.4664 76.5065 38.4724C76.5903 38.4784 76.6655 38.4875 76.7313 38.4996V43.7302C76.7313 43.8992 76.7465 44.0319 76.7761 44.1284C76.8065 44.2249 76.8448 44.3003 76.8932 44.3547C76.9467 44.4029 77.0067 44.436 77.0732 44.4541C77.1448 44.4662 77.22 44.4723 77.298 44.4723C77.3515 44.4723 77.4115 44.4693 77.478 44.4632C77.5496 44.4572 77.6096 44.4481 77.6573 44.436C77.7115 44.6472 77.7383 44.8765 77.7383 45.1238C77.6544 45.154 77.5525 45.1721 77.4325 45.1781C77.3125 45.1902 77.2019 45.1963 77.1 45.1963C76.9257 45.1963 76.7638 45.1751 76.6142 45.1329C76.4645 45.0907 76.3323 45.0213 76.2188 44.9248C76.1045 44.8282 76.0149 44.6985 75.9484 44.5356C75.8826 44.3727 75.8494 44.1706 75.8494 43.9293V38.4996ZM80.418 45.2415C80.058 45.2415 79.7429 45.1811 79.4732 45.0605C79.2036 44.9338 78.9788 44.7619 78.7988 44.5447C78.6188 44.3275 78.4836 44.0711 78.3939 43.7755C78.3101 43.4798 78.2682 43.1601 78.2682 42.8162C78.2682 42.4723 78.3101 42.1525 78.3939 41.857C78.4836 41.5613 78.6188 41.3049 78.7988 41.0877C78.9788 40.8706 79.2036 40.6986 79.4732 40.5719C79.7429 40.4452 80.058 40.3819 80.418 40.3819C80.7773 40.3819 81.0925 40.4452 81.3621 40.5719C81.6318 40.6986 81.8573 40.8706 82.0366 41.0877C82.2166 41.3049 82.3489 41.5613 82.4327 41.857C82.5224 42.1525 82.5679 42.4723 82.5679 42.8162C82.5679 43.1601 82.5224 43.4798 82.4327 43.7755C82.3489 44.0711 82.2166 44.3275 82.0366 44.5447C81.8573 44.7619 81.6318 44.9338 81.3621 45.0605C81.0925 45.1811 80.7773 45.2415 80.418 45.2415ZM80.418 44.5266C80.8315 44.5266 81.1373 44.3757 81.3354 44.0741C81.5335 43.7724 81.6318 43.3531 81.6318 42.8162C81.6318 42.2792 81.5335 41.863 81.3354 41.5674C81.1373 41.2657 80.8315 41.1149 80.418 41.1149C80.0038 41.1149 79.698 41.2657 79.5 41.5674C79.3084 41.863 79.2123 42.2792 79.2123 42.8162C79.2123 43.3531 79.3084 43.7724 79.5 44.0741C79.698 44.3757 80.0038 44.5266 80.418 44.5266ZM86.1679 44.5356C86.7014 44.5477 87.0882 44.6623 87.3282 44.8795C87.5682 45.0967 87.6882 45.3953 87.6882 45.7754C87.6882 46.0227 87.6253 46.2429 87.4995 46.436C87.373 46.6351 87.1995 46.804 86.9776 46.9428C86.7556 47.0876 86.4918 47.1962 86.186 47.2686C85.886 47.347 85.5592 47.3862 85.2057 47.3862C84.5877 47.3862 84.1171 47.2897 83.7932 47.0966C83.4694 46.9036 83.3074 46.5989 83.3074 46.1827C83.3074 45.9353 83.3732 45.712 83.5055 45.513C83.6371 45.3199 83.8084 45.1661 84.018 45.0515C83.898 44.973 83.7961 44.8765 83.7123 44.7619C83.6342 44.6412 83.5951 44.4933 83.5951 44.3184C83.5951 44.0952 83.6436 43.9021 83.739 43.7392C83.8409 43.5763 83.9761 43.4316 84.1438 43.3049C83.9465 43.1661 83.7874 42.9881 83.6674 42.7709C83.5474 42.5477 83.4874 42.2973 83.4874 42.0198C83.4874 41.7906 83.5294 41.5764 83.6132 41.3773C83.6971 41.1782 83.8171 41.0063 83.9732 40.8615C84.1351 40.7107 84.3332 40.5931 84.5667 40.5085C84.8009 40.4241 85.0677 40.3819 85.3677 40.3819C85.6373 40.3819 85.8802 40.4211 86.0963 40.4995C86.3176 40.5779 86.507 40.6775 86.6624 40.7981C86.7824 40.7016 86.9443 40.6232 87.1482 40.5629C87.352 40.4965 87.5776 40.4633 87.8233 40.4633C87.8472 40.5779 87.8588 40.7046 87.8588 40.8434C87.8588 40.9098 87.8559 40.9792 87.8501 41.0515C87.8443 41.124 87.8349 41.1963 87.8233 41.2688H87.0137C87.0795 41.3713 87.1308 41.4829 87.1662 41.6035C87.2024 41.7243 87.2204 41.863 87.2204 42.0198C87.2204 42.2672 87.1756 42.4904 87.0853 42.6895C86.9956 42.8886 86.8669 43.0605 86.6985 43.2053C86.5366 43.3441 86.3421 43.4527 86.1137 43.5311C85.886 43.6035 85.6373 43.6397 85.3677 43.6397C85.1219 43.6397 84.9 43.6125 84.7019 43.5583C84.618 43.6065 84.5342 43.6819 84.4496 43.7845C84.3723 43.8811 84.3332 43.9866 84.3332 44.1012C84.3332 44.2099 84.3723 44.3064 84.4496 44.3908C84.5277 44.4693 84.7019 44.5115 84.9715 44.5175L86.1679 44.5356ZM84.9535 45.2505C84.6838 45.2445 84.48 45.3169 84.3419 45.4678C84.2103 45.6185 84.1438 45.7995 84.1438 46.0107C84.1438 46.1434 84.1713 46.252 84.2248 46.3365C84.279 46.4209 84.3542 46.4873 84.4496 46.5355C84.5515 46.5899 84.6686 46.6261 84.8009 46.6442C84.939 46.6683 85.0886 46.6803 85.2506 46.6803C85.7306 46.6803 86.105 46.5989 86.3747 46.436C86.645 46.2792 86.7795 46.08 86.7795 45.8387C86.7795 45.6578 86.7224 45.519 86.6089 45.4224C86.4947 45.3259 86.285 45.2747 85.9792 45.2686L84.9535 45.2505ZM85.3677 42.9881C85.6915 42.9881 85.9308 42.8976 86.0869 42.7167C86.2431 42.5357 86.3212 42.3034 86.3212 42.0198C86.3212 41.7303 86.2431 41.4949 86.0869 41.314C85.9308 41.1269 85.6915 41.0334 85.3677 41.0334C85.0438 41.0334 84.8038 41.1269 84.6477 41.314C84.498 41.4949 84.4229 41.7303 84.4229 42.0198C84.4229 42.3034 84.498 42.5357 84.6477 42.7167C84.8038 42.8976 85.0438 42.9881 85.3677 42.9881ZM88.9359 41.1963H88.351C88.3395 41.148 88.3301 41.0938 88.3243 41.0334C88.3185 40.9671 88.3156 40.9037 88.3156 40.8434C88.3156 40.7831 88.3185 40.7227 88.3243 40.6624C88.3301 40.596 88.3395 40.5387 88.351 40.4904H89.8084V45.1329C89.7426 45.145 89.6674 45.154 89.5836 45.16C89.5055 45.1661 89.4339 45.1691 89.3682 45.1691C89.3082 45.1691 89.2359 45.1661 89.152 45.16C89.0739 45.154 89.0024 45.145 88.9359 45.1329V41.1963ZM88.7385 39.4679C88.7262 39.3955 88.7168 39.3171 88.711 39.2326C88.711 39.1481 88.711 39.0727 88.711 39.0064C88.711 38.94 88.711 38.8645 88.711 38.7801C88.7168 38.6957 88.7262 38.6203 88.7385 38.5539C88.8159 38.5418 88.9004 38.5328 88.9901 38.5267C89.0797 38.5207 89.1578 38.5176 89.2236 38.5176C89.2901 38.5176 89.3682 38.5207 89.4578 38.5267C89.5474 38.5328 89.6284 38.5418 89.7007 38.5539C89.713 38.6203 89.7188 38.6957 89.7188 38.7801C89.7245 38.8645 89.7274 38.94 89.7274 39.0064C89.7274 39.0727 89.7245 39.1481 89.7188 39.2326C89.7188 39.3171 89.713 39.3955 89.7007 39.4679C89.6284 39.48 89.5474 39.489 89.4578 39.495C89.3739 39.5011 89.2988 39.504 89.233 39.504C89.1607 39.504 89.0797 39.5011 88.9901 39.495C88.9004 39.489 88.8159 39.48 88.7385 39.4679ZM91.1768 44.2913C91.3388 44.3576 91.5151 44.412 91.7074 44.4541C91.9055 44.4904 92.1 44.5085 92.2922 44.5085C92.4296 44.5085 92.5619 44.4934 92.6877 44.4632C92.8135 44.4331 92.9219 44.3878 93.0115 44.3275C93.1077 44.2672 93.1821 44.1947 93.2363 44.1103C93.2963 44.0198 93.3267 43.9203 93.3267 43.8117C93.3267 43.691 93.3021 43.5915 93.2544 43.513C93.2125 43.4346 93.1525 43.3683 93.0744 43.3139C93.0029 43.2596 92.9154 43.2144 92.8135 43.1782C92.718 43.136 92.6125 43.0968 92.499 43.0605L92.1838 42.9429C91.8 42.7981 91.5216 42.6352 91.3474 42.4542C91.1739 42.2732 91.0865 42.0289 91.0865 41.7212C91.0865 41.3109 91.2303 40.9852 91.5188 40.7439C91.8122 40.5025 92.2409 40.3819 92.8048 40.3819C93.0383 40.3819 93.2667 40.406 93.4886 40.4543C93.7163 40.4965 93.9144 40.5478 94.0821 40.6081C94.0698 40.7288 94.046 40.8494 94.0098 40.9701C93.9802 41.0907 93.9412 41.2024 93.8927 41.3049C93.7612 41.2567 93.6021 41.2114 93.4163 41.1692C93.2363 41.1209 93.0419 41.0968 92.8315 41.0968C92.6096 41.0968 92.4123 41.136 92.238 41.2144C92.0703 41.2928 91.9865 41.4316 91.9865 41.6307C91.9865 41.7333 92.0074 41.8208 92.0494 41.8931C92.0913 41.9656 92.1484 42.0289 92.22 42.0832C92.2922 42.1315 92.3732 42.1737 92.4629 42.2099C92.559 42.2461 92.6609 42.2823 92.7686 42.3185L93.1648 42.4542C93.3086 42.5025 93.4431 42.5598 93.5696 42.6261C93.7012 42.6925 93.8125 42.777 93.9021 42.8795C93.9983 42.9761 94.0727 43.0968 94.1269 43.2416C94.1869 43.3803 94.2166 43.5492 94.2166 43.7483C94.2166 43.9715 94.1718 44.1766 94.0821 44.3637C93.9918 44.5447 93.8631 44.7015 93.6954 44.8342C93.5335 44.9609 93.3354 45.0605 93.1019 45.1329C92.8677 45.2053 92.6096 45.2415 92.3277 45.2415C92.04 45.2415 91.7884 45.2203 91.5723 45.1781C91.3568 45.1419 91.1559 45.0907 90.9694 45.0243C90.9816 44.9036 91.0055 44.7829 91.0416 44.6623C91.0836 44.5356 91.1284 44.412 91.1768 44.2913ZM95.5221 41.2054H94.8202L94.7841 41.0787L96.3318 39.3412H96.4033V40.4904H97.573C97.5968 40.5931 97.6084 40.7077 97.6084 40.8344C97.6084 40.9007 97.6055 40.964 97.5997 41.0244C97.5939 41.0847 97.5845 41.1451 97.573 41.2054H96.4033V43.3229C96.4033 43.5763 96.4127 43.7784 96.4301 43.9293C96.4547 44.0801 96.4901 44.1978 96.5385 44.2822C96.592 44.3607 96.6614 44.4149 96.7453 44.4451C96.8349 44.4693 96.9462 44.4813 97.0778 44.4813C97.1797 44.4813 97.2759 44.4753 97.3662 44.4632C97.4559 44.4451 97.5368 44.427 97.6084 44.4089C97.651 44.5296 97.6749 44.6533 97.6807 44.78C97.693 44.9067 97.6987 45.0183 97.6987 45.1148C97.5787 45.145 97.453 45.1661 97.3207 45.1781C97.1891 45.1963 97.0482 45.2053 96.8978 45.2053C96.4662 45.2053 96.1279 45.0997 95.8814 44.8885C95.6421 44.6774 95.5221 44.3275 95.5221 43.8388V41.2054ZM98.8445 41.1963H98.2597C98.2481 41.148 98.2388 41.0938 98.233 41.0334C98.2272 40.9671 98.2243 40.9037 98.2243 40.8434C98.2243 40.7831 98.2272 40.7227 98.233 40.6624C98.2388 40.596 98.2481 40.5387 98.2597 40.4904H99.7171V45.1329C99.6513 45.145 99.5761 45.154 99.4922 45.16C99.4142 45.1661 99.3426 45.1691 99.2761 45.1691C99.2161 45.1691 99.1445 45.1661 99.0607 45.16C98.9826 45.154 98.9103 45.145 98.8445 45.1329V41.1963ZM98.6465 39.4679C98.6349 39.3955 98.6255 39.3171 98.6197 39.2326C98.6197 39.1481 98.6197 39.0727 98.6197 39.0064C98.6197 38.94 98.6197 38.8645 98.6197 38.7801C98.6255 38.6957 98.6349 38.6203 98.6465 38.5539C98.7245 38.5418 98.8084 38.5328 98.8988 38.5267C98.9884 38.5207 99.0665 38.5176 99.1322 38.5176C99.1987 38.5176 99.2761 38.5207 99.3665 38.5267C99.4561 38.5328 99.5371 38.5418 99.6094 38.5539C99.6209 38.6203 99.6274 38.6957 99.6274 38.7801C99.6332 38.8645 99.6361 38.94 99.6361 39.0064C99.6361 39.0727 99.6332 39.1481 99.6274 39.2326C99.6274 39.3171 99.6209 39.3955 99.6094 39.4679C99.5371 39.48 99.4561 39.489 99.3665 39.495C99.2826 39.5011 99.2074 39.504 99.1416 39.504C99.0694 39.504 98.9884 39.5011 98.8988 39.495C98.8084 39.489 98.7245 39.48 98.6465 39.4679ZM101.13 38.4996C101.196 38.4875 101.268 38.4784 101.346 38.4724C101.43 38.4664 101.505 38.4634 101.571 38.4634C101.637 38.4634 101.712 38.4664 101.796 38.4724C101.88 38.4784 101.954 38.4875 102.021 38.4996V45.1329C101.954 45.145 101.88 45.154 101.796 45.16C101.712 45.1661 101.637 45.1691 101.571 45.1691C101.505 45.1691 101.43 45.1661 101.346 45.16C101.268 45.154 101.196 45.145 101.13 45.1329V38.4996ZM102.264 42.7257L103.73 40.4904C103.808 40.4784 103.885 40.4693 103.963 40.4633C104.041 40.4573 104.122 40.4543 104.206 40.4543C104.297 40.4543 104.38 40.4573 104.459 40.4633C104.542 40.4693 104.626 40.4784 104.71 40.4904L103.244 42.6624L104.962 45.1329C104.878 45.145 104.797 45.154 104.719 45.16C104.641 45.1661 104.56 45.1691 104.477 45.1691C104.392 45.1691 104.308 45.1661 104.224 45.16C104.14 45.154 104.057 45.145 103.973 45.1329L102.264 42.7257Z" fill="white"/>
</g>
<defs>
<clipPath id="clip0_172_1394">
<rect width="120" height="48" fill="white"/>
</clipPath>
</defs>
</svg>
