<svg width="38" height="30" viewBox="0 0 38 30" fill="none" xmlns="http://www.w3.org/2000/svg">
<path d="M35.5875 4.00684C35.5552 4.06873 35.5431 4.0973 35.5269 4.12111C33.799 6.91136 32.0832 9.71112 30.2946 12.4681C30.1692 12.668 30.0276 12.8537 29.89 13.0537C29.8637 13.1061 29.8214 13.1446 29.7717 13.1615C29.7221 13.1783 29.6688 13.1721 29.6229 13.1442C28.2669 12.6893 26.8519 12.528 25.4468 12.668C22.7778 12.9326 20.1569 13.6611 17.6693 14.8298C14.233 16.3758 10.9239 18.2884 7.78355 20.5436C7.44365 20.7817 7.10778 21.0197 6.77191 21.2769C6.71929 21.3102 6.67885 21.3769 6.5979 21.3435C9.16683 18.6005 11.8837 16.0558 14.7315 13.7251C17.9262 11.0899 21.345 8.85262 24.9329 7.04943C26.9211 6.04474 28.9807 5.24806 31.0877 4.66868C32.4933 4.27686 33.9292 4.05509 35.3731 4.00684H35.5875Z" fill="white"/>
<path d="M33.9487 16.9729C33.5805 16.8205 33.2163 16.6491 32.8481 16.4968C32.0242 16.1933 31.1749 15.9954 30.3149 15.9063C29.7204 15.8412 29.1231 15.819 28.5263 15.8397C27.7022 15.8627 26.8803 15.9501 26.066 16.1016C22.9115 16.7216 19.8431 17.8428 16.945 19.4346C15.2414 20.3536 13.6026 21.382 11.984 22.4677C10.3216 23.5729 8.50877 24.33 6.62627 24.7056C5.62578 24.9085 4.60959 24.9835 3.5954 24.9294C2.87276 24.9024 2.15606 24.7664 1.46286 24.5247C1.33826 24.4923 1.22098 24.429 1.1189 24.339L1.86751 24.1818C4.18575 23.6698 6.42639 22.7551 8.51602 21.4678C10.0335 20.5583 11.4943 19.5346 12.9673 18.5394C15.4649 16.8317 18.1557 15.5492 20.9592 14.7302C22.0004 14.4282 23.0576 14.2086 24.1237 14.0731C25.0441 13.9566 25.9708 13.9232 26.8955 13.9731C28.7836 14.0391 30.6351 14.602 32.3139 15.6206C32.8843 15.9704 33.4146 16.404 33.8921 16.911C33.9124 16.9297 33.9314 16.9504 33.9487 16.9729Z" fill="white"/>
<path d="M10.5752 16.3394C11.1093 15.53 11.6799 14.7681 12.2707 14.0301C14.3808 11.339 16.7868 8.99146 19.425 7.04975C20.2885 6.41198 21.1953 5.85933 22.1363 5.39748C22.2431 5.34204 22.3623 5.32869 22.4762 5.3594C23.5283 5.59745 24.5804 5.83554 25.6406 6.08314C20.3021 8.81309 15.2473 12.2543 10.5752 16.3394Z" fill="white"/>
<path d="M32.9121 18.0917L31.6981 17.9679C30.8588 17.8758 30.0152 17.8504 29.173 17.8917C27.8248 18.014 26.4922 18.311 25.1993 18.7774C24.2808 19.0821 23.4107 19.5535 22.5245 19.963C21.1156 20.651 19.6739 21.2424 18.2068 21.7342C17.2627 22.0362 16.2991 22.2464 15.3257 22.3628C15.0567 22.3929 14.7865 22.4041 14.5164 22.3961C14.5306 22.3611 14.5515 22.3304 14.5775 22.3064C14.6035 22.2825 14.6338 22.2659 14.6661 22.258C16.4263 21.3057 18.2109 20.4105 20.0359 19.6392C21.5403 18.9879 23.0767 18.4441 24.6369 18.0107C25.6384 17.7317 26.6532 17.5234 27.6758 17.387C28.4815 17.2771 29.2934 17.242 30.1038 17.2822C31.0187 17.2914 31.9227 17.5164 32.7624 17.9441C32.8225 17.9767 32.8742 18.0277 32.9121 18.0917Z" fill="white"/>
<path d="M23.433 20.5298C21.5352 25.7675 15.9145 30.348 9.36304 28.4339L10.0591 28.5529C10.8101 28.6704 11.5694 28.6975 12.3251 28.6339C13.5385 28.5521 14.7314 28.2301 15.8538 27.6816C18.2909 26.5085 20.2887 24.3438 21.4825 21.5821C21.5438 21.4227 21.6514 21.2944 21.786 21.2202C22.3143 20.9549 22.8546 20.7244 23.4046 20.5298H23.433Z" fill="white"/>
<path d="M18.8648 6.49753C15.9196 8.76513 13.2675 11.5202 10.9901 14.6779L10.9578 14.6493C11.0144 14.5207 11.067 14.3921 11.1237 14.2684C12.1512 11.9252 13.4976 9.79566 15.1096 7.96412C15.6308 7.37813 16.1941 6.84606 16.7929 6.37375C16.8862 6.2935 17.0019 6.25774 17.1166 6.27377C17.6993 6.35469 18.278 6.42611 18.8648 6.49753Z" fill="white"/>
<path d="M21.2027 4.55503C20.947 4.23352 20.6768 3.92834 20.3934 3.64082C18.9823 2.16805 17.2966 1.10635 15.4725 0.541424C13.6484 -0.0234993 11.737 -0.0758142 9.89252 0.388703C7.2294 0.986181 4.82355 2.64808 3.08214 5.09308C1.72029 6.95042 0.784578 9.18659 0.363883 11.5892C-0.0568113 13.9918 0.0514825 16.4811 0.678478 18.8206C0.698789 18.9614 0.748885 19.094 0.824155 19.2062C0.78369 19.0539 0.747269 18.9015 0.706804 18.7301C0.588429 18.1026 0.507302 17.4662 0.464011 16.8255C0.28532 14.4186 0.70721 12.0026 1.67798 9.87364C2.74194 7.56516 4.37008 5.68536 6.35178 4.4774C8.33348 3.26948 10.5776 2.78896 12.7939 3.09801C15.0626 3.37534 17.202 4.47513 18.9164 6.24538C18.9304 6.26296 18.9473 6.27698 18.9661 6.28658C18.9849 6.29613 19.0052 6.30108 19.0257 6.30108C19.0461 6.30108 19.0664 6.29613 19.0852 6.28658C19.104 6.27698 19.1209 6.26296 19.1349 6.24538C19.8228 5.72639 20.5188 5.21212 21.2108 4.69786C21.2917 4.6455 21.2472 4.60743 21.2027 4.55503Z" fill="white"/>
</svg>
